<?xml version="1.0" encoding="UTF-8" standalone="no"?>
<!-- Created with Inkscape (http://www.inkscape.org/) -->

<svg
   width="19.440111"
   height="17.481894"
   viewBox="0 0 19.440111 17.481894"
   version="1.1"
   id="svg1"
   sodipodi:docname="path2.svg"
   inkscape:export-filename="canastaBlanca.svg"
   inkscape:export-xdpi="118.51784"
   inkscape:export-ydpi="118.51784"
   xmlns:inkscape="http://www.inkscape.org/namespaces/inkscape"
   xmlns:sodipodi="http://sodipodi.sourceforge.net/DTD/sodipodi-0.dtd"
   xmlns="http://www.w3.org/2000/svg"
   xmlns:svg="http://www.w3.org/2000/svg">
  <sodipodi:namedview
     id="namedview1"
     pagecolor="#ffffff"
     bordercolor="#000000"
     borderopacity="0.25"
     inkscape:showpageshadow="2"
     inkscape:pageopacity="0.0"
     inkscape:pagecheckerboard="0"
     inkscape:deskcolor="#d1d1d1"
     inkscape:document-units="px"
     showguides="false" />
  <defs
     id="defs1" />
  <g
     inkscape:label="Capa 1"
     inkscape:groupmode="layer"
     id="layer1"
     transform="translate(-296.90381,-193.36689)"
     style="display:inline">
    <path
       style="opacity:1;fill:#ffffff;stroke:#ffffff;stroke-width:0.282095;stroke-dasharray:none;stroke-opacity:1"
       d="m 306.51039,198.43248 c 1.72792,-0.0278 2.25745,2.86655 2.2853,3.64577 0.0278,0.77926 0.22297,2.58826 -2.14594,2.61607 -2.37138,0.0278 -2.31993,-1.86499 -2.34106,-2.4769 -0.0277,-0.80708 0.58527,-3.64579 2.2017,-3.78494 z"
       id="path3"
       sodipodi:nodetypes="csssc"
       inkscape:export-filename=".\canastita.svg"
       inkscape:export-xdpi="118.51784"
       inkscape:export-ydpi="118.51784" />
    <path
       style="opacity:1;fill:#ffffff;stroke:#ffffff;stroke-width:0.282095;stroke-dasharray:none;stroke-opacity:1"
       d="m 311.45715,197.4142 c 1.72195,0.14895 1.96465,3.0829 1.91588,3.86109 -0.0486,0.77818 -0.0322,2.598 -2.39199,2.38346 -2.36217,-0.21474 -2.12514,-2.09279 -2.0861,-2.70377 0.0515,-0.80586 0.94024,-3.5676 2.56221,-3.54078 z"
       id="path3-3"
       sodipodi:nodetypes="csssc" />
    <path
       style="opacity:1;fill:#ffffff;stroke:#ffffff;stroke-width:0.2842;stroke-dasharray:none;stroke-opacity:1"
       d="m 301.77944,197.39727 c -1.74832,0.1489 -1.99474,3.08187 -1.94524,3.85978 0.0495,0.7779 0.0327,2.59712 2.42864,2.38267 2.39836,-0.2147 2.1577,-2.09211 2.11807,-2.70288 -0.0522,-0.80558 -0.95465,-3.56638 -2.60147,-3.53957 z"
       id="path3-3-1"
       sodipodi:nodetypes="csssc" />
    <path
       style="opacity:1;fill:none;stroke:#ffffff;stroke-width:0.244174;stroke-dasharray:none;stroke-opacity:1"
       d="m 299.60696,201.61523 c -2.11558,-1.31644 -1.90917,-0.84251 -2.11558,-1.31644 -0.20638,-0.47392 -0.20638,-0.47392 -0.20638,-0.47392 l -0.258,7.95131 c 0,0 1.80597,3.00149 8.97825,2.94883 7.17229,-0.0526 9.39105,-1.68504 9.70065,-2.3696 0.30958,-0.68454 0.30958,-0.68454 0.30958,-0.68454 l 0.2064,-7.4774 c 0,0 -0.41278,0.84254 -0.56758,0.94786 -0.15481,0.1052 -0.15481,0.1052 -0.15481,0.1052 0,0 -1.85756,0.94782 -2.06394,0.89518 -0.20643,-0.0526 -0.20643,-0.0526 -0.20643,-0.0526 v 0"
       id="path23" />
    <path
       style="opacity:1;fill:none;stroke:#ffffff;stroke-width:0.244174;stroke-dasharray:none;stroke-opacity:1"
       d="m 297.1302,205.09064 c 3.50875,5.00247 3.50875,5.00247 3.50875,5.00247 v 0"
       id="path24" />
    <path
       style="opacity:1;fill:none;stroke:#ffffff;stroke-width:0.244174;stroke-dasharray:none;stroke-opacity:1"
       d="m 297.3366,203.08965 5.10832,7.05612"
       id="path25" />
    <path
       style="opacity:1;fill:none;stroke:#ffffff;stroke-width:0.244174;stroke-dasharray:none;stroke-opacity:1"
       d="m 297.49138,201.66789 6.60471,8.63585"
       id="path26" />
    <path
       style="opacity:1;fill:none;stroke:#ffffff;stroke-width:0.244174;stroke-dasharray:none;stroke-opacity:1"
       d="m 300.63895,203.24762 5.26309,7.05612"
       id="path27" />
    <path
       style="opacity:1;fill:none;stroke:#ffffff;stroke-width:0.244174;stroke-dasharray:none;stroke-opacity:1"
       d="m 303.01251,203.61622 5.26311,6.95081"
       id="path28" />
    <path
       style="opacity:1;fill:none;stroke:#ffffff;stroke-width:0.244174;stroke-dasharray:none;stroke-opacity:1"
       d="m 306.36646,204.61673 c 4.02472,5.42372 4.02472,5.42372 4.02472,5.42372"
       id="path29" />
    <path
       style="opacity:1;fill:none;stroke:#ffffff;stroke-width:0.244174;stroke-dasharray:none;stroke-opacity:1"
       d="m 308.22403,204.14278 c 4.38591,5.68705 4.38591,5.68705 4.38591,5.68705"
       id="path30" />
    <path
       style="opacity:1;fill:none;stroke:#ffffff;stroke-width:0.244174;stroke-dasharray:none;stroke-opacity:1"
       d="m 309.772,203.35292 4.48912,5.73969"
       id="path31" />
    <path
       style="opacity:1;fill:none;stroke:#ffffff;stroke-width:0.244174;stroke-dasharray:none;stroke-opacity:1"
       d="m 312.40355,203.35292 c 3.45715,4.42326 3.45715,4.42326 3.45715,4.42326 v 0"
       id="path32" />
    <path
       style="opacity:1;fill:none;stroke:#ffffff;stroke-width:0.244174;stroke-dasharray:none;stroke-opacity:1"
       d="m 313.84834,202.14181 c 2.06395,2.42225 2.06395,2.42225 2.06395,2.42225"
       id="path33" />
    <path
       style="opacity:1;fill:none;stroke:#ffffff;stroke-width:0.244174;stroke-dasharray:none;stroke-opacity:1"
       d="m 315.03512,201.45725 c 1.08357,1.10582 1.08357,1.10582 1.08357,1.10582"
       id="path34" />
    <path
       style="opacity:1;fill:none;stroke:#ffffff;stroke-width:0.244174;stroke-dasharray:none;stroke-opacity:1"
       d="m 298.72976,201.19397 -1.65117,3.00149 0.20641,-0.26328"
       id="path35" />
    <path
       style="opacity:1;fill:none;stroke:#ffffff;stroke-width:0.244174;stroke-dasharray:none;stroke-opacity:1"
       d="m 300.22615,202.93167 c -3.14756,5.1078 -3.14756,5.1078 -3.14756,5.1078"
       id="path36" />
    <path
       style="opacity:1;fill:none;stroke:#ffffff;stroke-width:0.244174;stroke-dasharray:none;stroke-opacity:1"
       d="m 301.98052,203.61622 c -3.40556,5.58171 -3.40556,5.58171 -3.40556,5.58171"
       id="path37" />
    <path
       style="opacity:1;fill:none;stroke:#ffffff;stroke-width:0.244174;stroke-dasharray:none;stroke-opacity:1"
       d="m 303.7349,203.14231 c -3.81835,6.63485 -3.81835,6.63485 -3.81835,6.63485"
       id="path38" />
    <path
       style="opacity:1;fill:none;stroke:#ffffff;stroke-width:0.244174;stroke-dasharray:none;stroke-opacity:1"
       d="m 304.92168,204.09014 c -3.61195,6.00297 -3.61195,6.00297 -3.61195,6.00297"
       id="path39" />
    <path
       style="opacity:1;fill:none;stroke:#ffffff;stroke-width:0.244174;stroke-dasharray:none;stroke-opacity:1"
       d="m 306.62445,204.7747 c -3.56035,5.73967 -3.56035,5.73967 -3.56035,5.73967"
       id="path40" />
    <path
       style="opacity:1;fill:none;stroke:#ffffff;stroke-width:0.244174;stroke-dasharray:none;stroke-opacity:1"
       d="m 309.87519,203.72155 c -4.90191,7.00346 -4.90191,7.00346 -4.90191,7.00346"
       id="path41" />
    <path
       style="opacity:1;fill:none;stroke:#ffffff;stroke-width:0.244174;stroke-dasharray:none;stroke-opacity:1"
       d="m 311.99076,203.72155 c -5.05672,7.05612 -5.05672,7.05612 -5.05672,7.05612"
       id="path42" />
    <path
       style="opacity:1;fill:none;stroke:#ffffff;stroke-width:0.244174;stroke-dasharray:none;stroke-opacity:1"
       d="m 309.04961,210.46172 c 6.1403,-9.05713 6.1403,-9.05713 6.1403,-9.05713"
       id="path43" />
    <path
       style="opacity:1;fill:none;stroke:#ffffff;stroke-width:0.244174;stroke-dasharray:none;stroke-opacity:1"
       d="m 311.16517,210.19842 c 5.05671,-7.63535 5.05671,-7.63535 5.05671,-7.63535"
       id="path44" />
    <path
       style="opacity:1;fill:none;stroke:#ffffff;stroke-width:0.244174;stroke-dasharray:none;stroke-opacity:1"
       d="m 313.69354,209.72451 c 2.52834,-3.79135 2.52834,-3.79135 2.52834,-3.79135"
       id="path45" />
    <path
       style="opacity:1;fill:none;stroke:#ffffff;stroke-width:0.244174;stroke-dasharray:none;stroke-opacity:1"
       d="m 298.11058,200.72005 c 0,0 7.48188,-16.48183 17.49212,0.31596"
       id="path46"
       sodipodi:nodetypes="cc" />
  </g>
</svg>
