<?xml version="1.0" encoding="UTF-8" standalone="no"?>
<!-- Created with Inkscape (http://www.inkscape.org/) -->

<svg
   width="44.894588mm"
   height="45.236984mm"
   viewBox="0 0 44.894588 45.236984"
   version="1.1"
   id="svg1"
   xmlns:inkscape="http://www.inkscape.org/namespaces/inkscape"
   xmlns:sodipodi="http://sodipodi.sourceforge.net/DTD/sodipodi-0.dtd"
   xmlns="http://www.w3.org/2000/svg"
   xmlns:svg="http://www.w3.org/2000/svg">
  <sodipodi:namedview
     id="namedview1"
     pagecolor="#ffffff"
     bordercolor="#000000"
     borderopacity="0.25"
     inkscape:showpageshadow="2"
     inkscape:pageopacity="0.0"
     inkscape:pagecheckerboard="0"
     inkscape:deskcolor="#d1d1d1"
     inkscape:document-units="mm" />
  <defs
     id="defs1" />
  <g
     inkscape:label="Capa 1"
     inkscape:groupmode="layer"
     id="layer1"
     transform="translate(-1.7294078,-45.178939)">
    <path
       style="fill:none;stroke:#ffffff;stroke-width:0.315648"
       id="path1"
       sodipodi:type="arc"
       sodipodi:cx="50.569248"
       sodipodi:cy="69.815758"
       sodipodi:rx="11.698855"
       sodipodi:ry="13.963152"
       sodipodi:start="0"
       sodipodi:end="6.2820439"
       sodipodi:open="true"
       sodipodi:arc-type="arc"
       d="M 62.268104,69.815758 A 11.698855,13.963152 0 0 1 50.572586,83.778909 11.698855,13.963152 0 0 1 38.870395,69.823727 11.698855,13.963152 0 0 1 50.559233,55.852611 11.698855,13.963152 0 0 1 62.268096,69.79982" />
    <path
       style="fill:#ff6600;stroke:none;stroke-width:0.145603"
       d="M 20.31006,90.113801 C 12.170293,88.625164 5.3854928,82.602852 2.7941704,74.566399 1.9140522,71.836892 1.7359886,70.616222 1.7296008,67.268617 c -0.00651,-3.407832 0.1481758,-4.530182 0.9941063,-7.21336 1.8614906,-5.904429 5.90868,-10.801732 11.2116659,-13.566705 1.180487,-0.615503 3.00329,-1.389546 3.068325,-1.302945 0.01772,0.0236 0.354119,1.141172 0.747518,2.483445 l 0.715269,2.440499 -1.105444,0.463114 c -3.672918,1.538741 -7.015427,4.745284 -8.8174409,8.458752 -1.2468168,2.569362 -1.8052944,5.094621 -1.8052944,8.162988 0,5.014399 1.6579724,9.197761 5.0365973,12.708256 3.378634,3.510495 7.404853,5.233182 12.230892,5.233182 2.38211,0 3.729884,-0.228749 5.785129,-0.981853 2.555831,-0.936532 4.44295,-2.182655 6.445756,-4.25634 3.374388,-3.493796 5.036596,-7.686195 5.036596,-12.703245 0,-3.001061 -0.558642,-5.58698 -1.7314,-8.014571 -1.545416,-3.198984 -4.332364,-6.183133 -7.344996,-7.86473 l -0.808011,-0.451017 1.357508,-2.256411 1.357509,-2.256419 0.736087,0.385708 c 0.404846,0.212136 1.218179,0.720242 1.807405,1.129106 4.955201,3.438477 8.328045,8.614083 9.59755,14.727376 0.408729,1.968206 0.504765,5.75333 0.200428,7.899206 -1.417692,9.996038 -8.908315,17.91383 -18.571196,19.630256 -2.218503,0.394077 -5.380343,0.39027 -7.5641,-0.0091 z"
       id="path9"
       inkscape:export-filename="circulo.svg"
       inkscape:export-xdpi="96"
       inkscape:export-ydpi="96" />
  </g>
</svg>
